<mxfile host="app.diagrams.net" modified="2024-06-18T09:02:29.982Z" agent="Mozilla/5.0 (Windows NT 10.0; Win64; x64) AppleWebKit/537.36 (KHTML, like Gecko) Chrome/125.0.0.0 Safari/537.36" etag="xXbAVCiMJfYz9mPCg4ot" version="24.5.4" type="device">
  <diagram name="Page-1" id="zQ_uUGUQplurJMRS0d0c">
    <mxGraphModel dx="2500" dy="1097" grid="1" gridSize="10" guides="1" tooltips="1" connect="1" arrows="1" fold="1" page="1" pageScale="1" pageWidth="827" pageHeight="1169" math="0" shadow="0">
      <root>
        <mxCell id="0" />
        <mxCell id="1" parent="0" />
        <mxCell id="rXfAWWrwg_iWpWXAM6Nm-1" value="" style="rounded=0;whiteSpace=wrap;html=1;" parent="1" vertex="1">
          <mxGeometry x="40" y="80" width="480" height="920" as="geometry" />
        </mxCell>
        <mxCell id="rXfAWWrwg_iWpWXAM6Nm-2" value="Header" style="rounded=0;whiteSpace=wrap;html=1;fillColor=#dae8fc;strokeColor=#6c8ebf;" parent="1" vertex="1">
          <mxGeometry x="160" y="100" width="240" height="60" as="geometry" />
        </mxCell>
        <mxCell id="rXfAWWrwg_iWpWXAM6Nm-3" value="Navigation" style="rounded=0;whiteSpace=wrap;html=1;fillColor=#d5e8d4;strokeColor=#82b366;" parent="1" vertex="1">
          <mxGeometry x="70" y="170" width="420" height="40" as="geometry" />
        </mxCell>
        <mxCell id="rXfAWWrwg_iWpWXAM6Nm-4" value="Login Form&lt;div&gt;(Should be hard coded for now)&lt;/div&gt;" style="rounded=0;whiteSpace=wrap;html=1;fillColor=#ffe6cc;strokeColor=#d79b00;" parent="1" vertex="1">
          <mxGeometry x="70" y="230" width="420" height="370" as="geometry" />
        </mxCell>
        <mxCell id="rXfAWWrwg_iWpWXAM6Nm-5" value="" style="rounded=0;whiteSpace=wrap;html=1;" parent="1" vertex="1">
          <mxGeometry x="600" y="80" width="480" height="920" as="geometry" />
        </mxCell>
        <mxCell id="rXfAWWrwg_iWpWXAM6Nm-6" value="Header" style="rounded=0;whiteSpace=wrap;html=1;fillColor=#dae8fc;strokeColor=#6c8ebf;" parent="1" vertex="1">
          <mxGeometry x="720" y="100" width="240" height="60" as="geometry" />
        </mxCell>
        <mxCell id="rXfAWWrwg_iWpWXAM6Nm-7" value="Navigation" style="rounded=0;whiteSpace=wrap;html=1;fillColor=#d5e8d4;strokeColor=#82b366;" parent="1" vertex="1">
          <mxGeometry x="630" y="170" width="420" height="40" as="geometry" />
        </mxCell>
        <mxCell id="rXfAWWrwg_iWpWXAM6Nm-9" value="Topic Drop Down Menu" style="rounded=0;whiteSpace=wrap;html=1;fillColor=#ffe6cc;strokeColor=#d79b00;" parent="1" vertex="1">
          <mxGeometry x="630" y="220" width="320" height="60" as="geometry" />
        </mxCell>
        <mxCell id="rXfAWWrwg_iWpWXAM6Nm-10" value="ARTICLE CONTAINER" style="rounded=0;whiteSpace=wrap;html=1;fillColor=#fff2cc;strokeColor=#d6b656;" parent="1" vertex="1">
          <mxGeometry x="630" y="290" width="420" height="710" as="geometry" />
        </mxCell>
        <mxCell id="rXfAWWrwg_iWpWXAM6Nm-12" value="" style="rounded=0;whiteSpace=wrap;html=1;" parent="1" vertex="1">
          <mxGeometry x="660" y="300" width="360" height="110" as="geometry" />
        </mxCell>
        <mxCell id="rXfAWWrwg_iWpWXAM6Nm-13" value="Article Image" style="rounded=0;whiteSpace=wrap;html=1;fillColor=#e1d5e7;strokeColor=#9673a6;" parent="1" vertex="1">
          <mxGeometry x="670" y="310" width="130" height="90" as="geometry" />
        </mxCell>
        <mxCell id="rXfAWWrwg_iWpWXAM6Nm-14" value="Article Info" style="rounded=0;whiteSpace=wrap;html=1;fillColor=#e1d5e7;strokeColor=#9673a6;" parent="1" vertex="1">
          <mxGeometry x="810" y="310" width="200" height="90" as="geometry" />
        </mxCell>
        <mxCell id="rXfAWWrwg_iWpWXAM6Nm-15" value="" style="rounded=0;whiteSpace=wrap;html=1;" parent="1" vertex="1">
          <mxGeometry x="660" y="430" width="360" height="110" as="geometry" />
        </mxCell>
        <mxCell id="rXfAWWrwg_iWpWXAM6Nm-16" value="Article Image" style="rounded=0;whiteSpace=wrap;html=1;fillColor=#e1d5e7;strokeColor=#9673a6;" parent="1" vertex="1">
          <mxGeometry x="670" y="440" width="130" height="90" as="geometry" />
        </mxCell>
        <mxCell id="rXfAWWrwg_iWpWXAM6Nm-17" value="Article Info" style="rounded=0;whiteSpace=wrap;html=1;fillColor=#e1d5e7;strokeColor=#9673a6;" parent="1" vertex="1">
          <mxGeometry x="810" y="440" width="200" height="90" as="geometry" />
        </mxCell>
        <mxCell id="rXfAWWrwg_iWpWXAM6Nm-21" value="" style="rounded=0;whiteSpace=wrap;html=1;" parent="1" vertex="1">
          <mxGeometry x="1160" y="80" width="480" height="920" as="geometry" />
        </mxCell>
        <mxCell id="rXfAWWrwg_iWpWXAM6Nm-22" value="Header" style="rounded=0;whiteSpace=wrap;html=1;fillColor=#dae8fc;strokeColor=#6c8ebf;" parent="1" vertex="1">
          <mxGeometry x="1280" y="100" width="240" height="60" as="geometry" />
        </mxCell>
        <mxCell id="rXfAWWrwg_iWpWXAM6Nm-23" value="Navigation" style="rounded=0;whiteSpace=wrap;html=1;fillColor=#d5e8d4;strokeColor=#82b366;" parent="1" vertex="1">
          <mxGeometry x="1190" y="170" width="420" height="40" as="geometry" />
        </mxCell>
        <mxCell id="rXfAWWrwg_iWpWXAM6Nm-24" value="Article Image" style="rounded=0;whiteSpace=wrap;html=1;fillColor=#ffe6cc;strokeColor=#d79b00;" parent="1" vertex="1">
          <mxGeometry x="1190" y="230" width="420" height="370" as="geometry" />
        </mxCell>
        <mxCell id="rXfAWWrwg_iWpWXAM6Nm-25" value="Article Info (Including likes, created at date etc)" style="rounded=0;whiteSpace=wrap;html=1;fillColor=#fff2cc;strokeColor=#d6b656;" parent="1" vertex="1">
          <mxGeometry x="1190" y="610" width="420" height="110" as="geometry" />
        </mxCell>
        <mxCell id="rXfAWWrwg_iWpWXAM6Nm-26" value="Comments Container" style="rounded=0;whiteSpace=wrap;html=1;fillColor=#f8cecc;strokeColor=#b85450;" parent="1" vertex="1">
          <mxGeometry x="1190" y="740" width="420" height="260" as="geometry" />
        </mxCell>
        <mxCell id="rXfAWWrwg_iWpWXAM6Nm-27" value="Click to open/hide comments&lt;div&gt;(To Optimize page load, comments are diabled on load)&lt;/div&gt;" style="rounded=0;whiteSpace=wrap;html=1;fillColor=#e1d5e7;strokeColor=#9673a6;" parent="1" vertex="1">
          <mxGeometry x="1200" y="750" width="400" height="60" as="geometry" />
        </mxCell>
        <mxCell id="rXfAWWrwg_iWpWXAM6Nm-28" value="Username" style="rounded=0;whiteSpace=wrap;html=1;fillColor=#f8cecc;strokeColor=#b85450;" parent="1" vertex="1">
          <mxGeometry x="150" y="330" width="260" height="60" as="geometry" />
        </mxCell>
        <mxCell id="rXfAWWrwg_iWpWXAM6Nm-29" value="Login" style="rounded=0;whiteSpace=wrap;html=1;fillColor=#e1d5e7;strokeColor=#9673a6;" parent="1" vertex="1">
          <mxGeometry x="220" y="440" width="120" height="60" as="geometry" />
        </mxCell>
        <mxCell id="rXfAWWrwg_iWpWXAM6Nm-30" value="Comments Container" style="rounded=0;whiteSpace=wrap;html=1;fillColor=#f8cecc;strokeColor=#b85450;" parent="1" vertex="1">
          <mxGeometry x="1720" y="80" width="420" height="920" as="geometry" />
        </mxCell>
        <mxCell id="rXfAWWrwg_iWpWXAM6Nm-31" value="Click to open/hide comments&lt;div&gt;(To Optimize page load, comments are diabled on load)&lt;/div&gt;" style="rounded=0;whiteSpace=wrap;html=1;fillColor=#e1d5e7;strokeColor=#9673a6;" parent="1" vertex="1">
          <mxGeometry x="1730" y="90" width="400" height="60" as="geometry" />
        </mxCell>
        <mxCell id="rXfAWWrwg_iWpWXAM6Nm-32" value="" style="rounded=0;whiteSpace=wrap;html=1;" parent="1" vertex="1">
          <mxGeometry x="1730" y="220" width="400" height="300" as="geometry" />
        </mxCell>
        <mxCell id="rXfAWWrwg_iWpWXAM6Nm-33" value="Avatar" style="ellipse;whiteSpace=wrap;html=1;aspect=fixed;fillColor=#dae8fc;strokeColor=#6c8ebf;" parent="1" vertex="1">
          <mxGeometry x="1750" y="245" width="50" height="50" as="geometry" />
        </mxCell>
        <mxCell id="rXfAWWrwg_iWpWXAM6Nm-34" value="User Comment" style="rounded=0;whiteSpace=wrap;html=1;fillColor=#d5e8d4;strokeColor=#82b366;" parent="1" vertex="1">
          <mxGeometry x="1820" y="235" width="260" height="60" as="geometry" />
        </mxCell>
        <mxCell id="rXfAWWrwg_iWpWXAM6Nm-35" value="Edit" style="rounded=0;whiteSpace=wrap;html=1;fillColor=#ffe6cc;strokeColor=#d79b00;" parent="1" vertex="1">
          <mxGeometry x="2090" y="235" width="30" height="35" as="geometry" />
        </mxCell>
        <mxCell id="rXfAWWrwg_iWpWXAM6Nm-48" value="Username" style="rounded=0;whiteSpace=wrap;html=1;" parent="1" vertex="1">
          <mxGeometry x="1740" y="235" width="70" height="20" as="geometry" />
        </mxCell>
        <mxCell id="rXfAWWrwg_iWpWXAM6Nm-49" value="UseState:&lt;div&gt;isArticleLoading&lt;br&gt;&lt;div&gt;isCommentLoading&lt;/div&gt;&lt;div&gt;isShowComment&lt;/div&gt;&lt;div&gt;allComments&lt;/div&gt;&lt;div&gt;commentToSend&lt;/div&gt;&lt;div&gt;commentsShowing&lt;/div&gt;&lt;div&gt;isEditComment&lt;/div&gt;&lt;/div&gt;&lt;div&gt;editedComment&lt;/div&gt;&lt;div&gt;editedArticle&lt;/div&gt;&lt;div&gt;article&lt;/div&gt;" style="rounded=0;whiteSpace=wrap;html=1;" parent="1" vertex="1">
          <mxGeometry x="1160" y="1020" width="480" height="160" as="geometry" />
        </mxCell>
        <mxCell id="rXfAWWrwg_iWpWXAM6Nm-52" value="UseState:&lt;div&gt;usernameInput&lt;br&gt;&lt;div&gt;&lt;br&gt;&lt;/div&gt;&lt;/div&gt;" style="rounded=0;whiteSpace=wrap;html=1;" parent="1" vertex="1">
          <mxGeometry x="40" y="1020" width="480" height="160" as="geometry" />
        </mxCell>
        <mxCell id="rXfAWWrwg_iWpWXAM6Nm-53" value="UseState:&lt;div&gt;isArticleLoading&lt;/div&gt;&lt;div&gt;allTopics&lt;/div&gt;&lt;div&gt;selectedTopic&lt;/div&gt;&lt;div&gt;articlesShowing&lt;/div&gt;&lt;div&gt;sortBy&lt;/div&gt;&lt;div&gt;articles&lt;/div&gt;" style="rounded=0;whiteSpace=wrap;html=1;" parent="1" vertex="1">
          <mxGeometry x="600" y="1020" width="480" height="160" as="geometry" />
        </mxCell>
        <mxCell id="rXfAWWrwg_iWpWXAM6Nm-54" value="" style="rounded=0;whiteSpace=wrap;html=1;fillColor=#fff2cc;strokeColor=#d6b656;" parent="1" vertex="1">
          <mxGeometry x="1740" y="340" width="380" height="130" as="geometry" />
        </mxCell>
        <mxCell id="rXfAWWrwg_iWpWXAM6Nm-55" value="Edited New Comment" style="rounded=0;whiteSpace=wrap;html=1;" parent="1" vertex="1">
          <mxGeometry x="1760" y="350" width="340" height="60" as="geometry" />
        </mxCell>
        <mxCell id="rXfAWWrwg_iWpWXAM6Nm-56" value="New Comment" style="rounded=0;whiteSpace=wrap;html=1;fillColor=#dae8fc;strokeColor=#6c8ebf;" parent="1" vertex="1">
          <mxGeometry x="1200" y="820" width="370" height="40" as="geometry" />
        </mxCell>
        <mxCell id="rXfAWWrwg_iWpWXAM6Nm-57" value="Send" style="rounded=0;whiteSpace=wrap;html=1;" parent="1" vertex="1">
          <mxGeometry x="1570" y="820" width="30" height="40" as="geometry" />
        </mxCell>
        <mxCell id="rXfAWWrwg_iWpWXAM6Nm-58" value="Send" style="rounded=0;whiteSpace=wrap;html=1;fillColor=#e1d5e7;strokeColor=#9673a6;" parent="1" vertex="1">
          <mxGeometry x="1760" y="420" width="340" height="40" as="geometry" />
        </mxCell>
        <mxCell id="rXfAWWrwg_iWpWXAM6Nm-59" value="" style="rounded=0;whiteSpace=wrap;html=1;" parent="1" vertex="1">
          <mxGeometry x="1730" y="560" width="400" height="120" as="geometry" />
        </mxCell>
        <mxCell id="rXfAWWrwg_iWpWXAM6Nm-60" value="Avatar" style="ellipse;whiteSpace=wrap;html=1;aspect=fixed;fillColor=#dae8fc;strokeColor=#6c8ebf;" parent="1" vertex="1">
          <mxGeometry x="1750" y="585" width="50" height="50" as="geometry" />
        </mxCell>
        <mxCell id="rXfAWWrwg_iWpWXAM6Nm-61" value="User Comment" style="rounded=0;whiteSpace=wrap;html=1;fillColor=#d5e8d4;strokeColor=#82b366;" parent="1" vertex="1">
          <mxGeometry x="1820" y="575" width="260" height="60" as="geometry" />
        </mxCell>
        <mxCell id="rXfAWWrwg_iWpWXAM6Nm-63" value="Username" style="rounded=0;whiteSpace=wrap;html=1;" parent="1" vertex="1">
          <mxGeometry x="1740" y="575" width="70" height="20" as="geometry" />
        </mxCell>
        <mxCell id="rXfAWWrwg_iWpWXAM6Nm-64" value="" style="rounded=0;whiteSpace=wrap;html=1;" parent="1" vertex="1">
          <mxGeometry x="-520" y="80" width="480" height="920" as="geometry" />
        </mxCell>
        <mxCell id="rXfAWWrwg_iWpWXAM6Nm-65" value="Header" style="rounded=0;whiteSpace=wrap;html=1;fillColor=#dae8fc;strokeColor=#6c8ebf;" parent="1" vertex="1">
          <mxGeometry x="-400" y="100" width="240" height="60" as="geometry" />
        </mxCell>
        <mxCell id="rXfAWWrwg_iWpWXAM6Nm-66" value="Navigation" style="rounded=0;whiteSpace=wrap;html=1;fillColor=#d5e8d4;strokeColor=#82b366;" parent="1" vertex="1">
          <mxGeometry x="-490" y="170" width="420" height="40" as="geometry" />
        </mxCell>
        <mxCell id="rXfAWWrwg_iWpWXAM6Nm-67" value="&lt;b&gt;&lt;font style=&quot;font-size: 26px;&quot;&gt;Home&lt;/font&gt;&lt;/b&gt;" style="text;html=1;align=center;verticalAlign=middle;whiteSpace=wrap;rounded=0;" parent="1" vertex="1">
          <mxGeometry x="-520" y="30" width="480" height="50" as="geometry" />
        </mxCell>
        <mxCell id="rXfAWWrwg_iWpWXAM6Nm-68" value="&lt;b&gt;&lt;font style=&quot;font-size: 26px;&quot;&gt;Login&lt;/font&gt;&lt;/b&gt;" style="text;html=1;align=center;verticalAlign=middle;whiteSpace=wrap;rounded=0;" parent="1" vertex="1">
          <mxGeometry x="40" y="30" width="480" height="50" as="geometry" />
        </mxCell>
        <mxCell id="rXfAWWrwg_iWpWXAM6Nm-69" value="&lt;b&gt;&lt;font style=&quot;font-size: 26px;&quot;&gt;TopicArticles&lt;/font&gt;&lt;/b&gt;" style="text;html=1;align=center;verticalAlign=middle;whiteSpace=wrap;rounded=0;" parent="1" vertex="1">
          <mxGeometry x="600" y="30" width="480" height="50" as="geometry" />
        </mxCell>
        <mxCell id="rXfAWWrwg_iWpWXAM6Nm-70" value="&lt;b&gt;&lt;font style=&quot;font-size: 26px;&quot;&gt;Article&lt;/font&gt;&lt;/b&gt;" style="text;html=1;align=center;verticalAlign=middle;whiteSpace=wrap;rounded=0;" parent="1" vertex="1">
          <mxGeometry x="1160" y="30" width="480" height="50" as="geometry" />
        </mxCell>
        <mxCell id="rXfAWWrwg_iWpWXAM6Nm-71" value="Welcome Message" style="rounded=0;whiteSpace=wrap;html=1;fillColor=#f8cecc;strokeColor=#b85450;" parent="1" vertex="1">
          <mxGeometry x="-490" y="230" width="420" height="430" as="geometry" />
        </mxCell>
        <mxCell id="rXfAWWrwg_iWpWXAM6Nm-72" value="" style="rounded=0;whiteSpace=wrap;html=1;" parent="1" vertex="1">
          <mxGeometry x="-1080" y="80" width="480" height="920" as="geometry" />
        </mxCell>
        <mxCell id="rXfAWWrwg_iWpWXAM6Nm-73" value="Header" style="rounded=0;whiteSpace=wrap;html=1;fillColor=#dae8fc;strokeColor=#6c8ebf;" parent="1" vertex="1">
          <mxGeometry x="-960" y="100" width="240" height="60" as="geometry" />
        </mxCell>
        <mxCell id="rXfAWWrwg_iWpWXAM6Nm-74" value="Navigation" style="rounded=0;whiteSpace=wrap;html=1;fillColor=#d5e8d4;strokeColor=#82b366;" parent="1" vertex="1">
          <mxGeometry x="-1050" y="170" width="420" height="40" as="geometry" />
        </mxCell>
        <mxCell id="rXfAWWrwg_iWpWXAM6Nm-76" value="&lt;b&gt;&lt;font style=&quot;font-size: 26px;&quot;&gt;Header&lt;/font&gt;&lt;/b&gt;" style="text;html=1;align=center;verticalAlign=middle;whiteSpace=wrap;rounded=0;" parent="1" vertex="1">
          <mxGeometry x="-1080" y="30" width="480" height="50" as="geometry" />
        </mxCell>
        <mxCell id="rXfAWWrwg_iWpWXAM6Nm-77" value="Avatar" style="rounded=0;whiteSpace=wrap;html=1;" parent="1" vertex="1">
          <mxGeometry x="-670" y="170" width="40" height="40" as="geometry" />
        </mxCell>
        <mxCell id="rXfAWWrwg_iWpWXAM6Nm-78" value="Avatar" style="rounded=0;whiteSpace=wrap;html=1;" parent="1" vertex="1">
          <mxGeometry x="-110" y="170" width="40" height="40" as="geometry" />
        </mxCell>
        <mxCell id="rXfAWWrwg_iWpWXAM6Nm-79" value="Avatar" style="rounded=0;whiteSpace=wrap;html=1;" parent="1" vertex="1">
          <mxGeometry x="450" y="170" width="40" height="40" as="geometry" />
        </mxCell>
        <mxCell id="rXfAWWrwg_iWpWXAM6Nm-80" value="Avatar" style="rounded=0;whiteSpace=wrap;html=1;" parent="1" vertex="1">
          <mxGeometry x="1010" y="170" width="40" height="40" as="geometry" />
        </mxCell>
        <mxCell id="rXfAWWrwg_iWpWXAM6Nm-81" value="Avatar" style="rounded=0;whiteSpace=wrap;html=1;" parent="1" vertex="1">
          <mxGeometry x="1570" y="170" width="40" height="40" as="geometry" />
        </mxCell>
        <mxCell id="rXfAWWrwg_iWpWXAM6Nm-82" value="" style="rounded=0;whiteSpace=wrap;html=1;" parent="1" vertex="1">
          <mxGeometry x="-1640" y="80" width="480" height="920" as="geometry" />
        </mxCell>
        <mxCell id="rXfAWWrwg_iWpWXAM6Nm-83" value="&lt;b&gt;&lt;font style=&quot;font-size: 26px;&quot;&gt;App&lt;/font&gt;&lt;/b&gt;" style="text;html=1;align=center;verticalAlign=middle;whiteSpace=wrap;rounded=0;" parent="1" vertex="1">
          <mxGeometry x="-1640" y="30" width="480" height="50" as="geometry" />
        </mxCell>
        <mxCell id="rXfAWWrwg_iWpWXAM6Nm-119" style="edgeStyle=orthogonalEdgeStyle;rounded=0;orthogonalLoop=1;jettySize=auto;html=1;exitX=0.5;exitY=1;exitDx=0;exitDy=0;entryX=0.5;entryY=1;entryDx=0;entryDy=0;fillColor=#1ba1e2;strokeColor=#006EAF;" parent="1" source="rXfAWWrwg_iWpWXAM6Nm-84" target="rXfAWWrwg_iWpWXAM6Nm-103" edge="1">
          <mxGeometry relative="1" as="geometry">
            <Array as="points">
              <mxPoint x="-840" y="1300" />
              <mxPoint x="280" y="1300" />
            </Array>
          </mxGeometry>
        </mxCell>
        <mxCell id="rXfAWWrwg_iWpWXAM6Nm-122" style="edgeStyle=orthogonalEdgeStyle;rounded=0;orthogonalLoop=1;jettySize=auto;html=1;exitX=0.5;exitY=1;exitDx=0;exitDy=0;entryX=0.5;entryY=1;entryDx=0;entryDy=0;fillColor=#1ba1e2;strokeColor=#006EAF;" parent="1" source="rXfAWWrwg_iWpWXAM6Nm-84" target="rXfAWWrwg_iWpWXAM6Nm-102" edge="1">
          <mxGeometry relative="1" as="geometry">
            <Array as="points">
              <mxPoint x="-840" y="1340" />
              <mxPoint x="1400" y="1340" />
            </Array>
          </mxGeometry>
        </mxCell>
        <mxCell id="rXfAWWrwg_iWpWXAM6Nm-84" value="UseState:&lt;div&gt;isLoggedIn (global react context)&lt;br&gt;&lt;div&gt;&lt;br&gt;&lt;/div&gt;&lt;/div&gt;" style="rounded=0;whiteSpace=wrap;html=1;" parent="1" vertex="1">
          <mxGeometry x="-1080" y="1040" width="480" height="110" as="geometry" />
        </mxCell>
        <mxCell id="rXfAWWrwg_iWpWXAM6Nm-92" style="edgeStyle=orthogonalEdgeStyle;rounded=0;orthogonalLoop=1;jettySize=auto;html=1;exitX=0;exitY=0.25;exitDx=0;exitDy=0;entryX=0.5;entryY=0;entryDx=0;entryDy=0;" parent="1" source="rXfAWWrwg_iWpWXAM6Nm-86" target="rXfAWWrwg_iWpWXAM6Nm-87" edge="1">
          <mxGeometry relative="1" as="geometry" />
        </mxCell>
        <mxCell id="rXfAWWrwg_iWpWXAM6Nm-93" style="edgeStyle=orthogonalEdgeStyle;rounded=0;orthogonalLoop=1;jettySize=auto;html=1;exitX=0;exitY=0.5;exitDx=0;exitDy=0;entryX=0.5;entryY=0;entryDx=0;entryDy=0;" parent="1" source="rXfAWWrwg_iWpWXAM6Nm-86" target="rXfAWWrwg_iWpWXAM6Nm-89" edge="1">
          <mxGeometry relative="1" as="geometry" />
        </mxCell>
        <mxCell id="rXfAWWrwg_iWpWXAM6Nm-94" style="edgeStyle=orthogonalEdgeStyle;rounded=0;orthogonalLoop=1;jettySize=auto;html=1;exitX=0;exitY=0.75;exitDx=0;exitDy=0;entryX=0.5;entryY=0;entryDx=0;entryDy=0;" parent="1" source="rXfAWWrwg_iWpWXAM6Nm-86" target="rXfAWWrwg_iWpWXAM6Nm-91" edge="1">
          <mxGeometry relative="1" as="geometry" />
        </mxCell>
        <mxCell id="iX_alNXjOuVNtsgc0cFE-1" style="edgeStyle=orthogonalEdgeStyle;rounded=0;orthogonalLoop=1;jettySize=auto;html=1;exitX=1;exitY=0.75;exitDx=0;exitDy=0;entryX=0.5;entryY=0;entryDx=0;entryDy=0;" edge="1" parent="1" source="rXfAWWrwg_iWpWXAM6Nm-86" target="rXfAWWrwg_iWpWXAM6Nm-95">
          <mxGeometry relative="1" as="geometry" />
        </mxCell>
        <mxCell id="iX_alNXjOuVNtsgc0cFE-2" style="edgeStyle=orthogonalEdgeStyle;rounded=0;orthogonalLoop=1;jettySize=auto;html=1;exitX=1;exitY=0.5;exitDx=0;exitDy=0;entryX=0.5;entryY=0;entryDx=0;entryDy=0;" edge="1" parent="1" source="rXfAWWrwg_iWpWXAM6Nm-86" target="rXfAWWrwg_iWpWXAM6Nm-99">
          <mxGeometry relative="1" as="geometry" />
        </mxCell>
        <mxCell id="rXfAWWrwg_iWpWXAM6Nm-86" value="App.js" style="rounded=0;whiteSpace=wrap;html=1;" parent="1" vertex="1">
          <mxGeometry x="380" y="1490" width="120" height="60" as="geometry" />
        </mxCell>
        <mxCell id="rXfAWWrwg_iWpWXAM6Nm-87" value="Header" style="rounded=0;whiteSpace=wrap;html=1;" parent="1" vertex="1">
          <mxGeometry x="-40" y="1600" width="120" height="60" as="geometry" />
        </mxCell>
        <mxCell id="rXfAWWrwg_iWpWXAM6Nm-89" value="Home" style="rounded=0;whiteSpace=wrap;html=1;" parent="1" vertex="1">
          <mxGeometry x="120" y="1600" width="120" height="60" as="geometry" />
        </mxCell>
        <mxCell id="rXfAWWrwg_iWpWXAM6Nm-91" value="Login" style="rounded=0;whiteSpace=wrap;html=1;" parent="1" vertex="1">
          <mxGeometry x="280" y="1600" width="120" height="60" as="geometry" />
        </mxCell>
        <mxCell id="rXfAWWrwg_iWpWXAM6Nm-95" value="TopicArticles" style="rounded=0;whiteSpace=wrap;html=1;" parent="1" vertex="1">
          <mxGeometry x="480" y="1600" width="120" height="60" as="geometry" />
        </mxCell>
        <mxCell id="rXfAWWrwg_iWpWXAM6Nm-99" value="Article" style="rounded=0;whiteSpace=wrap;html=1;" parent="1" vertex="1">
          <mxGeometry x="640" y="1600" width="120" height="60" as="geometry" />
        </mxCell>
        <mxCell id="rXfAWWrwg_iWpWXAM6Nm-102" value="Take in:&lt;div&gt;isLoggedIn&lt;/div&gt;" style="rounded=0;whiteSpace=wrap;html=1;" parent="1" vertex="1">
          <mxGeometry x="1160" y="1200" width="480" height="60" as="geometry" />
        </mxCell>
        <mxCell id="rXfAWWrwg_iWpWXAM6Nm-103" value="Take in:&lt;div&gt;isLoggedIn&lt;/div&gt;" style="rounded=0;whiteSpace=wrap;html=1;" parent="1" vertex="1">
          <mxGeometry x="40" y="1200" width="480" height="60" as="geometry" />
        </mxCell>
        <mxCell id="rXfAWWrwg_iWpWXAM6Nm-104" value="Sort By" style="rounded=0;whiteSpace=wrap;html=1;fillColor=#ffe6cc;strokeColor=#d79b00;" parent="1" vertex="1">
          <mxGeometry x="960" y="220" width="90" height="60" as="geometry" />
        </mxCell>
        <mxCell id="rXfAWWrwg_iWpWXAM6Nm-105" value="Upvotes" style="rounded=0;whiteSpace=wrap;html=1;fillColor=#e1d5e7;strokeColor=#9673a6;" parent="1" vertex="1">
          <mxGeometry x="1820" y="640" width="70" height="30" as="geometry" />
        </mxCell>
        <mxCell id="rXfAWWrwg_iWpWXAM6Nm-107" value="Upvotes" style="rounded=0;whiteSpace=wrap;html=1;fillColor=#e1d5e7;strokeColor=#9673a6;" parent="1" vertex="1">
          <mxGeometry x="1820" y="300" width="70" height="30" as="geometry" />
        </mxCell>
        <mxCell id="rXfAWWrwg_iWpWXAM6Nm-109" value="Comment Date" style="rounded=0;whiteSpace=wrap;html=1;fillColor=#e1d5e7;strokeColor=#9673a6;" parent="1" vertex="1">
          <mxGeometry x="1900" y="640" width="180" height="30" as="geometry" />
        </mxCell>
        <mxCell id="rXfAWWrwg_iWpWXAM6Nm-110" value="New Comment" style="rounded=0;whiteSpace=wrap;html=1;" parent="1" vertex="1">
          <mxGeometry x="1730" y="160" width="370" height="40" as="geometry" />
        </mxCell>
        <mxCell id="rXfAWWrwg_iWpWXAM6Nm-111" value="Send" style="rounded=0;whiteSpace=wrap;html=1;" parent="1" vertex="1">
          <mxGeometry x="2100" y="160" width="30" height="40" as="geometry" />
        </mxCell>
        <mxCell id="rXfAWWrwg_iWpWXAM6Nm-112" value="Comment Date" style="rounded=0;whiteSpace=wrap;html=1;fillColor=#e1d5e7;strokeColor=#9673a6;" parent="1" vertex="1">
          <mxGeometry x="1900" y="300" width="180" height="30" as="geometry" />
        </mxCell>
        <mxCell id="rXfAWWrwg_iWpWXAM6Nm-116" value="Delete" style="rounded=0;whiteSpace=wrap;html=1;fillColor=#ffe6cc;strokeColor=#d79b00;" parent="1" vertex="1">
          <mxGeometry x="2090" y="275" width="30" height="25" as="geometry" />
        </mxCell>
      </root>
    </mxGraphModel>
  </diagram>
</mxfile>
